<?xml version="1.0" encoding="utf-8"?>
<!-- Generator: Adobe Illustrator 21.0.0, SVG Export Plug-In . SVG Version: 6.00 Build 0)  -->
<svg version="1.1" id="Capa_1" xmlns="http://www.w3.org/2000/svg" xmlns:xlink="http://www.w3.org/1999/xlink" x="0px" y="0px"
	 viewBox="0 0 960 560" style="enable-background:new 0 0 960 560;" xml:space="preserve">
<style type="text/css">
	.st0{fill:#DC4C3F;}
	.st1{fill:#F37121;}
	.st2{fill:#F9A01B;}
	.st3{fill:#F68D3D;}
	.st4{fill:#EF3E2D;}
</style>
<g>
	<g>
		<g>
			<path class="st0" d="M451.6,226.9c-6.8-18.7-15.7-31.8-26.7-39.3c-5.8-3.9-12.5-5.9-19.9-5.9c-16.2,0-30.7,8.6-43.6,25.7
				c-10.8,14.4-19.6,32.3-26.4,53.7c-5.5,16.7-10.3,38.4-14.4,65.1c-2.2,14.4-3.3,27.4-3.3,39c0,3.6,0.4,6.8,1.2,9.7
				c0.8,2.9,2.3,5.2,4.7,6.9c2.4,1.7,6,2.6,11,2.6c11.4,0,17.7-6.2,19-18.5c1.6-14.9,3.9-31.1,6.8-48.5c5.8,0.9,12.2,1.4,19.3,1.4
				c5.6,0,11.3-0.3,17.3-0.9c4.7-0.5,8.5-1,11.3-1.5c0.9,13.2,1.6,27.2,1.9,42c0.2,5.1,1,9.6,2.5,13.4c1.5,3.8,4,6.8,7.6,8.9
				c3.6,2.1,8.5,3.2,14.7,3.2c10.7,0,18.3-4.6,22.7-13.7c3.9-8,6.5-21.5,8.1-40.3c0.3-4.6,0.5-9.9,0.5-15.9c0-9.8-0.6-20.4-1.8-31.6
				C461.7,262,457.6,243.5,451.6,226.9z M389.2,295.1l-8.1,0.1c-5.6,0-11.3,0.4-17.1,1.3c7.7-36.1,16.9-61.5,27.5-76.3
				c2.1,3.1,4.4,11.3,7.2,24.6c2.7,13.4,5.2,30.4,7.3,51.2C401,295.4,395.4,295.1,389.2,295.1z"/>
			<path class="st0" d="M905.4,272.1c-0.9,0-1.7,0.3-2.6,0.8c-0.9,0.6-2,1.9-3.2,3.9c-1.2,2.1-2.8,5.3-4.6,9.8
				c-2,4.8-4.6,10.2-7.8,16.3c-3.2,6.1-6.9,12.2-11.2,18.5c-4.2,6.2-8.8,12-13.7,17.4c-4.9,5.3-9.9,9.7-15.1,13
				c-5.2,3.3-10.4,5-15.5,5c-9.8,0-16.2-6.1-19.4-18.4c-1.7-6.5-2.6-13.6-2.6-21.2c0-3.1,0.1-6,0.4-8.9c4.1,5.6,9.8,8.3,17.2,8.3
				c10.4,0,20.5-4.6,30.4-13.8c9.9-9.2,14.9-21.3,14.9-36.3c0-10.3-3.4-19-10.2-26.1c-6.8-7.1-17.5-10.7-32-10.7
				c-22.3,0-40.5,8.6-54.6,25.7c-6.7,8.2-11.8,17.6-15.3,28.1c-1.3,1.9-2.8,3.9-4.5,5.8c-3.1,3.6-6.8,6.7-11.2,9.2
				c-4.3,2.6-8.2,3.8-11.5,3.8c2.1-2.6,4.3-9.8,6.7-21.3c1.6-7.6,2.4-14.6,2.4-20.9c0-11.4-2.7-19.8-8.2-25.3
				c-3.3-3.3-8.2-4.9-14.5-4.9c-7.2,0-14.2,2.8-21,8.3c-6.8,5.6-12.9,13.2-18.2,22.8c0-6.3-0.3-11.6-1-15.7
				c-0.9-4.9-2.8-8.8-5.9-11.7c-3.7-3.6-8.9-5.4-15.8-5.4c-8.8,0-15.3,2.6-19.4,7.7c-6.3,7.8-10.9,23.5-13.8,47
				c-1.4,2-2.9,4.1-4.7,6.2c-3.1,3.6-6.8,6.7-11.2,9.2c-4.3,2.6-8.2,3.8-11.5,3.8c2.1-2.6,4.3-9.8,6.7-21.3
				c1.6-7.6,2.4-14.6,2.4-20.9c0-11.4-2.7-19.8-8.2-25.3c-3.3-3.3-8.2-4.9-14.5-4.9c-7.2,0-14.2,2.8-21,8.3
				c-6.8,5.6-12.9,13.2-18.2,22.8c0-6.3-0.3-11.6-1-15.7c-0.9-4.9-2.8-8.8-5.9-11.7c-3.7-3.6-8.9-5.4-15.8-5.4
				c-8.8,0-15.3,2.6-19.4,7.7c-7.9,9.8-13.1,32-15.7,66.5c-1,14.1-1.5,26-1.5,35.7c0,17.2,1.4,29,4.1,35.4s8.6,9.6,17.7,9.6
				c9,0,15.8-3,20.5-9c3.9-5,6.9-15.3,9.2-31.1c1.9-12.4,4.7-25.3,8.6-38.8c5.2-18.1,10.9-31.2,16.9-39.3c3.3-4.4,6.9-6.7,10.7-6.7
				c-3.8,9.5-5.8,19.6-5.8,30.4c0,13.2,2.9,22.4,8.7,27.7c3,2.8,6.9,4.2,11.8,4.2c7.1,0,14.5-2.4,22.1-7.1c4.8-3,9.1-6.4,12.8-10.2
				c-1,13.6-1.5,25.2-1.5,34.6c0,17.2,1.4,29,4.1,35.4c2.7,6.4,8.6,9.6,17.7,9.6c9,0,15.8-3,20.5-9c3.8-5,6.9-15.3,9.2-31.1
				c1.9-12.4,4.8-25.3,8.6-38.8c5.2-18.1,10.9-31.2,16.9-39.3c3.3-4.4,6.9-6.7,10.7-6.7c-3.9,9.5-5.8,19.6-5.8,30.4
				c0,13.2,2.9,22.4,8.7,27.7c3,2.8,6.9,4.2,11.8,4.2c7.1,0,14.5-2.4,22.1-7.1c3.5-2.2,6.7-4.6,9.6-7.2c-0.5,5-0.9,10-0.9,15.4
				c0,18.4,4.5,33.6,13.6,45.5c9.1,11.9,23.9,17.9,44.5,17.9c13.3,0,25.6-3.3,36.8-9.8c22.6-13.1,41.1-42.2,55.6-87.4
				c1.8-5.6,2.7-9.8,2.7-12.7C908,273.4,907.1,272.1,905.4,272.1z M818.1,273.3c2.4-5.5,5.5-9.9,9.2-13.2c3.7-3.3,8.2-5,13.5-5
				c4.8,0,7.2,3.9,7.2,11.7c0,8-2.2,15.5-6.7,22.5c-4.5,7-10,10.5-16.4,10.5c-5.6,0-9.8-2.9-12.3-8.6
				C813.9,284.7,815.7,278.7,818.1,273.3z"/>
		</g>
	</g>
	<path class="st1" d="M282.9,105.7c0-7.8-2.8-14.4-8.3-19.6c-5.5-5.5-12.1-8.3-19.6-8.3l-0.7,0c-7.5,0-14.1,2.8-19.6,8.3
		c-5.5,5.2-8.3,11.8-8.3,19.6l0.2,102.9l-62.9,0.1v56.3l63-0.1l0.1,54c0,17.4-6,32.2-18.2,44.6c-12.3,12.3-27.1,18.5-44.5,18.5
		c-0.1,0-0.3,0-0.4,0v56.3c0.2,0,0.3,0,0.5,0c32.8-0.1,60.8-11.7,84.2-35c23.3-23.4,35-51.6,34.9-84.5L282.9,105.7z"/>
	<path class="st2" d="M139.9,303.6h47.5c2.2,0,3.4,2.5,2.1,4.2l-23.7,32.4c-1.1,1.5-3.2,1.5-4.3,0l-23.7-32.4
		C136.4,306.1,137.7,303.6,139.9,303.6z"/>
	<path class="st1" d="M163.6,387.7L163.6,387.7L163.6,387.7v86.1l0,0l0,0c14.5,0,26.4-10.7,26.4-23.7v-38.7
		C190,398.3,178.1,387.7,163.6,387.7z"/>
	<g>
		<path class="st2" d="M119.2,363.8c-12.2-12.3-18.3-27.1-18.3-44.5l-0.1-54l62.8-0.1v-56.3l-62.9,0.1L100.5,106
			c0-7.8-2.8-14.4-8.3-19.6c-5.5-5.5-12.1-8.3-19.6-8.3l-0.7,0c-7.5,0-14.1,2.8-19.6,8.3c-5.5,5.2-8.3,11.8-8.3,19.6l0.4,213.2
			c0.1,32.9,11.8,61.1,35.2,84.4c23.3,23.1,51.3,34.6,84,34.7v-56.3C146.3,382.1,131.5,376,119.2,363.8z"/>
		<path class="st2" d="M137.2,411.4V450c0,13,11.9,23.7,26.4,23.7v-86.1C149.1,387.7,137.2,398.3,137.2,411.4z"/>
	</g>
	<path class="st3" d="M468,219.9c-6.8-18.7-15.7-31.8-26.7-39.3c-5.8-3.9-12.5-5.9-19.9-5.9c-16.2,0-30.7,8.6-43.6,25.7
		c-10.8,14.4-19.6,32.3-26.4,53.7c-5.5,16.7-10.3,38.4-14.4,65.1c-2.2,14.4-3.3,27.4-3.3,39c0,3.6,0.4,6.8,1.2,9.7
		c0.8,2.9,2.3,5.2,4.7,6.9c2.4,1.7,6,2.6,11,2.6c11.4,0,17.7-6.2,19-18.5c1.6-14.9,3.9-31.1,6.8-48.5c5.8,0.9,12.2,1.4,19.3,1.4
		c5.6,0,11.3-0.3,17.3-0.9c4.7-0.5,8.5-1,11.3-1.5c0.9,13.2,1.6,27.2,1.9,42c0.2,5.1,1,9.6,2.5,13.4c1.5,3.8,4,6.8,7.6,8.9
		c3.6,2.1,8.5,3.2,14.7,3.2c10.7,0,18.3-4.6,22.7-13.7c3.9-8,6.5-21.5,8.1-40.3c0.3-4.6,0.5-9.9,0.5-15.9c0-9.8-0.6-20.4-1.8-31.6
		C478.1,255,474,236.5,468,219.9z M405.6,288.1l-8.1,0.1c-5.6,0-11.3,0.4-17.1,1.3c7.7-36.1,16.9-61.5,27.5-76.3
		c2.1,3.1,4.4,11.3,7.2,24.6c2.7,13.4,5.2,30.4,7.3,51.2C417.4,288.4,411.8,288.1,405.6,288.1z"/>
	<path class="st4" d="M350.4,378.9c-5.4,0-9.3-0.9-11.9-2.9c-2.7-1.9-4.4-4.5-5.3-7.8c-0.8-3-1.2-6.4-1.2-10.1
		c0-11.7,1.1-24.9,3.4-39.3c4.1-26.6,9-48.6,14.4-65.3c6.9-21.5,15.8-39.7,26.7-54.1c13.2-17.5,28.3-26.3,45-26.3
		c7.7,0,14.8,2.1,20.8,6.2c11.2,7.7,20.4,21.2,27.3,40.1c6,16.7,10.2,35.4,12.4,55.7c1.2,11.2,1.8,21.9,1.8,31.8
		c0,6-0.2,11.4-0.5,16c-1.6,19-4.3,32.7-8.2,40.9c-4.7,9.7-12.9,14.7-24.2,14.7c-6.5,0-11.8-1.2-15.6-3.4c-3.9-2.3-6.6-5.6-8.3-9.7
		c-1.6-4-2.4-8.7-2.6-14c-0.3-14-0.9-27.5-1.8-40.1c-2.6,0.4-5.8,0.8-9.6,1.2c-13,1.3-25.2,1.2-35.4-0.3c-2.8,16.8-5,32.5-6.5,46.8
		C369.7,372.2,362.7,378.9,350.4,378.9z M421.4,176.4c-15.6,0-29.8,8.4-42.3,25c-10.6,14.2-19.4,32-26.2,53.2
		c-5.4,16.6-10.3,38.4-14.3,64.8c-2.2,14.2-3.3,27.3-3.3,38.8c0,3.4,0.4,6.5,1.1,9.3c0.7,2.5,2,4.5,4.1,6c2.1,1.5,5.4,2.2,10,2.2
		c10.5,0,16.2-5.6,17.4-17c1.6-14.8,3.9-31.2,6.8-48.6c0.2-0.9,1-1.5,1.9-1.4c10.2,1.7,22.7,1.8,36.2,0.5c4.7-0.5,8.4-1,11.2-1.5
		c0.5-0.1,0.9,0,1.3,0.3c0.4,0.3,0.6,0.7,0.6,1.2c0.9,13.2,1.6,27.3,1.9,42.1c0.2,4.9,1,9.2,2.4,12.8c1.4,3.5,3.6,6.2,6.9,8.1
		c3.3,2,7.9,3,13.8,3c10.1,0,17-4.2,21.2-12.8c3.7-7.8,6.4-21.2,7.9-39.7c0.3-4.6,0.5-9.9,0.5-15.8c0-9.8-0.6-20.3-1.8-31.4
		c-2.2-20-6.3-38.5-12.2-54.9c-6.7-18.2-15.5-31.2-26.1-38.5C434.8,178.3,428.5,176.4,421.4,176.4z M380.4,291.1
		c-0.5,0-0.9-0.2-1.2-0.5c-0.4-0.4-0.5-0.9-0.4-1.5c7.7-36.2,17.1-62,27.7-76.9c0.3-0.4,0.8-0.7,1.3-0.7h0c0.5,0,1,0.3,1.3,0.7
		c2.2,3.3,4.6,11.5,7.4,25.2c2.7,13.3,5.2,30.6,7.3,51.4c0.1,0.5-0.1,1-0.5,1.4c-0.4,0.4-0.9,0.5-1.4,0.5c-5-0.7-10.5-1-16.6-1
		l-8.1,0.1c-5.5,0-11.1,0.4-16.9,1.3C380.6,291.1,380.5,291.1,380.4,291.1z M407.7,216.4c-9.6,14.4-18,38.3-25.1,71.1
		c5.1-0.6,10.1-1,15-1l8.1-0.1c5.4,0,10.4,0.3,15,0.8c-2.1-19.7-4.5-36.2-7.1-49C411,226,409.1,219.7,407.7,216.4z"/>
	<g>
		<path class="st3" d="M921.8,265.1c-0.9,0-1.7,0.3-2.6,0.8c-0.9,0.6-2,1.9-3.2,3.9c-1.2,2.1-2.8,5.3-4.6,9.8
			c-2,4.8-4.6,10.2-7.8,16.3c-3.2,6.1-6.9,12.2-11.2,18.5c-4.2,6.2-8.8,12-13.7,17.4c-4.9,5.3-9.9,9.7-15.1,13
			c-5.2,3.3-10.4,5-15.5,5c-9.8,0-16.2-6.1-19.4-18.4c-1.7-6.5-2.6-13.6-2.6-21.2c0-3.1,0.1-6,0.4-8.9c4.1,5.6,9.8,8.3,17.2,8.3
			c10.4,0,20.5-4.6,30.4-13.8c9.9-9.2,14.9-21.3,14.9-36.3c0-10.3-3.4-19-10.2-26.1c-6.8-7.1-17.5-10.7-32-10.7
			c-22.3,0-40.5,8.6-54.6,25.7c-6.7,8.2-11.8,17.6-15.3,28.1c-1.3,1.9-2.8,3.9-4.5,5.8c-3.1,3.6-6.8,6.7-11.2,9.2
			c-4.3,2.6-8.2,3.8-11.5,3.8c2.1-2.6,4.3-9.8,6.7-21.3c1.6-7.6,2.4-14.6,2.4-20.9c0-11.4-2.7-19.8-8.2-25.3
			c-3.3-3.3-8.2-4.9-14.5-4.9c-7.2,0-14.2,2.8-21,8.3c-6.8,5.6-12.9,13.2-18.2,22.8c0-6.3-0.3-11.6-1-15.7
			c-0.9-4.9-2.8-8.8-5.9-11.7c-3.7-3.6-8.9-5.4-15.8-5.4c-8.8,0-15.3,2.6-19.4,7.7c-6.3,7.8-10.9,23.5-13.8,47
			c-1.4,2-2.9,4.1-4.7,6.2c-3.1,3.6-6.8,6.7-11.2,9.2c-4.3,2.6-8.2,3.8-11.5,3.8c2.1-2.6,4.3-9.8,6.7-21.3
			c1.6-7.6,2.4-14.6,2.4-20.9c0-11.4-2.7-19.8-8.2-25.3c-3.3-3.3-8.2-4.9-14.5-4.9c-7.2,0-14.2,2.8-21,8.3
			c-6.8,5.6-12.9,13.2-18.2,22.8c0-6.3-0.3-11.6-1-15.7c-0.9-4.9-2.8-8.8-5.9-11.7c-3.7-3.6-8.9-5.4-15.8-5.4
			c-8.8,0-15.3,2.6-19.4,7.7c-7.9,9.8-13.1,32-15.7,66.5c-1,14.1-1.5,26-1.5,35.7c0,17.2,1.4,29,4.1,35.4s8.6,9.6,17.7,9.6
			c9,0,15.8-3,20.5-9c3.9-5,6.9-15.3,9.2-31.1c1.9-12.4,4.7-25.3,8.6-38.8c5.2-18.1,10.9-31.2,16.9-39.3c3.3-4.4,6.9-6.7,10.7-6.7
			c-3.8,9.5-5.8,19.6-5.8,30.4c0,13.2,2.9,22.4,8.7,27.7c3,2.8,6.9,4.2,11.8,4.2c7.1,0,14.5-2.4,22.1-7.1c4.8-3,9.1-6.4,12.8-10.2
			c-1,13.6-1.5,25.2-1.5,34.6c0,17.2,1.4,29,4.1,35.4c2.7,6.4,8.6,9.6,17.7,9.6c9,0,15.8-3,20.5-9c3.8-5,6.9-15.3,9.2-31.1
			c1.9-12.4,4.8-25.3,8.6-38.8c5.2-18.1,10.9-31.2,16.9-39.3c3.3-4.4,6.9-6.7,10.7-6.7c-3.9,9.5-5.8,19.6-5.8,30.4
			c0,13.2,2.9,22.4,8.7,27.7c3,2.8,6.9,4.2,11.8,4.2c7.1,0,14.5-2.4,22.1-7.1c3.5-2.2,6.7-4.6,9.6-7.2c-0.5,5-0.9,10-0.9,15.4
			c0,18.4,4.5,33.6,13.6,45.5c9.1,11.9,23.9,17.9,44.5,17.9c13.3,0,25.6-3.3,36.8-9.8c22.6-13.1,41.1-42.2,55.6-87.4
			c1.8-5.6,2.7-9.8,2.7-12.7C924.3,266.3,923.5,265.1,921.8,265.1z M834.5,266.2c2.4-5.5,5.5-9.9,9.2-13.2c3.7-3.3,8.2-5,13.5-5
			c4.8,0,7.2,3.9,7.2,11.7c0,8-2.2,15.5-6.7,22.5c-4.5,7-10,10.5-16.4,10.5c-5.6,0-9.8-2.9-12.3-8.6
			C830.2,277.7,832.1,271.7,834.5,266.2z"/>
		<path class="st4" d="M829.2,380.4c-21.1,0-36.5-6.2-45.9-18.6c-9.3-12.2-13.9-27.8-13.9-46.5c0-3.7,0.2-7.5,0.5-11.5
			c-2.2,1.7-4.4,3.3-6.7,4.7c-7.8,4.8-15.6,7.3-23,7.3c-5.3,0-9.6-1.6-12.9-4.7c-6.1-5.6-9.2-15.3-9.2-28.9c0-9.9,1.6-19.4,4.9-28.3
			c-2.3,0.8-4.6,2.7-6.7,5.6c-5.9,7.9-11.5,20.9-16.7,38.7c-3.8,13.3-6.7,26.3-8.6,38.6c-2.4,16.2-5.5,26.6-9.6,31.8
			c-5,6.4-12.4,9.6-21.9,9.6c-9.8,0-16.2-3.6-19.2-10.6c-2.9-6.7-4.2-18.5-4.2-36.1c0-8.4,0.4-18.6,1.2-30.5
			c-3.1,2.8-6.4,5.3-10,7.5c-7.8,4.8-15.6,7.3-23,7.3c-5.3,0-9.6-1.6-12.9-4.7c-6.1-5.6-9.2-15.3-9.2-28.9c0-9.9,1.6-19.4,4.9-28.3
			c-2.3,0.8-4.6,2.7-6.7,5.6c-5.9,7.9-11.5,20.9-16.7,38.7c-3.8,13.3-6.7,26.3-8.6,38.6c-2.4,16.2-5.5,26.6-9.6,31.8
			c-5,6.4-12.4,9.6-21.9,9.6c-9.8,0-16.2-3.6-19.2-10.6c-2.9-6.7-4.2-18.5-4.2-36.1c0-9.7,0.5-21.7,1.5-35.8
			c2.6-35.2,7.9-57.2,16-67.4c4.4-5.5,11.4-8.3,20.7-8.3c7.3,0,13,2,16.9,5.9c3.3,3.1,5.5,7.4,6.4,12.6c0.5,2.8,0.8,6.2,0.9,10
			c4.7-7.5,9.9-13.6,15.6-18.2c7.1-5.8,14.5-8.7,22-8.7c6.7,0,12,1.8,15.7,5.3c5.8,5.8,8.7,14.7,8.7,26.5c0,6.4-0.8,13.6-2.5,21.3
			c-1.8,8.9-3.6,15.1-5.3,18.9c2.3-0.5,4.9-1.6,7.6-3.3c4.1-2.5,7.8-5.5,10.8-8.9c1.5-1.8,2.9-3.6,4.3-5.7
			c3-23.8,7.6-39.3,14.1-47.4c4.4-5.5,11.4-8.3,20.7-8.3c7.3,0,13,2,16.9,5.9c3.3,3.1,5.5,7.4,6.4,12.6c0.5,2.8,0.8,6.2,0.9,10
			c4.7-7.5,9.9-13.6,15.6-18.2c7.1-5.8,14.5-8.7,22-8.7c6.7,0,12,1.8,15.7,5.3c5.8,5.8,8.7,14.7,8.7,26.5c0,6.4-0.8,13.6-2.5,21.3
			c-1.8,8.9-3.6,15.1-5.3,18.9c2.3-0.5,4.9-1.6,7.6-3.3c4.1-2.5,7.8-5.5,10.8-8.9c1.5-1.7,2.9-3.5,4.2-5.5
			c3.6-10.7,8.8-20.2,15.5-28.4c14.3-17.4,33.2-26.3,55.9-26.3c15,0,26.1,3.8,33.2,11.2c7.1,7.4,10.7,16.6,10.7,27.3
			c0,15.4-5.2,28-15.4,37.5c-10.2,9.5-20.8,14.2-31.5,14.2c-6.4,0-11.7-2-15.8-5.9c-0.1,1.6-0.1,3.2-0.1,4.8
			c0,7.4,0.8,14.4,2.5,20.8c3,11.5,8.8,17.1,17.8,17.1c4.8,0,9.7-1.6,14.6-4.7c5.1-3.2,10.1-7.5,14.8-12.7
			c4.8-5.3,9.4-11.1,13.5-17.2c4.2-6.2,7.9-12.3,11.1-18.3c3.2-6,5.7-11.4,7.7-16.2c1.8-4.6,3.4-7.8,4.7-10c1.4-2.3,2.6-3.8,3.8-4.5
			c1.2-0.7,2.3-1.1,3.5-1.1c1.3,0,4.2,0.5,4.2,5.4c0,3.1-0.9,7.4-2.8,13.2c-14.5,45.4-33.5,75.1-56.3,88.3
			C855.5,377,842.8,380.4,829.2,380.4z M772,298.2c0.3,0,0.5,0.1,0.8,0.2c0.6,0.3,1,1,0.9,1.7c-0.6,5.4-0.9,10.4-0.9,15.2
			c0,17.9,4.5,32.9,13.3,44.5c8.7,11.4,23.2,17.3,43.2,17.3c13,0,25.1-3.2,36-9.5c22.1-12.8,40.6-41.9,54.8-86.5
			c1.7-5.4,2.6-9.5,2.6-12.2c0-2.1-0.6-2.1-0.9-2.1c-0.5,0-1.1,0.2-1.8,0.6c-0.4,0.2-1.2,1-2.7,3.4c-1.2,2-2.7,5.2-4.4,9.5
			c-2,4.9-4.6,10.4-7.8,16.5c-3.2,6.1-7,12.4-11.3,18.6c-4.3,6.3-8.9,12.2-13.8,17.6c-4.9,5.4-10.2,9.9-15.5,13.3
			c-5.5,3.5-11,5.3-16.4,5.3c-10.6,0-17.6-6.6-21-19.6c-1.7-6.6-2.6-13.9-2.6-21.6c0-3.1,0.1-6.1,0.4-9c0.1-0.7,0.5-1.3,1.2-1.4
			c0.7-0.2,1.4,0.1,1.8,0.6c3.8,5.2,9,7.7,15.9,7.7c9.9,0,19.7-4.5,29.3-13.4c9.5-8.8,14.4-20.6,14.4-35c0-9.8-3.3-18.2-9.8-25
			c-6.4-6.8-16.8-10.2-30.8-10.2c-21.7,0-39.7,8.4-53.3,25.1c-6.5,7.9-11.5,17.2-15,27.5c0,0.1-0.1,0.3-0.2,0.4
			c-1.4,2.1-2.9,4.1-4.6,6c-3.2,3.7-7.1,6.9-11.6,9.6c-4.6,2.7-8.7,4.1-12.3,4.1c-0.6,0-1.2-0.4-1.5-0.9s-0.2-1.2,0.2-1.7
			c1.3-1.7,3.5-6.6,6.4-20.6c1.6-7.5,2.4-14.4,2.4-20.6c0-10.9-2.6-19-7.7-24.1c-3-2.9-7.5-4.4-13.3-4.4c-6.8,0-13.5,2.7-19.9,8
			c-6.6,5.4-12.6,12.9-17.8,22.4c-0.4,0.7-1.1,1-1.9,0.8c-0.7-0.2-1.2-0.8-1.2-1.6c0-6.2-0.3-11.4-1-15.4c-0.8-4.5-2.6-8.1-5.4-10.7
			c-3.4-3.3-8.3-4.9-14.7-4.9c-8.2,0-14.3,2.4-18.1,7.1c-6,7.6-10.5,23.1-13.4,46.2c0,0.3-0.1,0.5-0.3,0.7c-1.5,2.3-3.1,4.4-4.8,6.3
			c-3.2,3.7-7.1,6.9-11.6,9.6c-4.6,2.7-8.7,4.1-12.3,4.1c-0.6,0-1.2-0.4-1.5-0.9s-0.2-1.2,0.2-1.7c1.3-1.7,3.5-6.6,6.4-20.6
			c1.6-7.5,2.4-14.4,2.4-20.6c0-10.9-2.6-19-7.7-24.1c-3-2.9-7.5-4.4-13.3-4.4c-6.8,0-13.5,2.7-19.9,8c-6.6,5.4-12.6,12.9-17.8,22.4
			c-0.4,0.7-1.1,1-1.9,0.8c-0.7-0.2-1.2-0.8-1.2-1.6c0-6.2-0.3-11.4-1-15.4c-0.8-4.5-2.6-8.1-5.4-10.7c-3.4-3.3-8.3-4.9-14.7-4.9
			c-8.2,0-14.3,2.4-18.1,7.1c-7.6,9.5-12.8,31.6-15.3,65.6c-1,14-1.5,26-1.5,35.6c0,16.9,1.3,28.6,4,34.8c2.5,5.8,7.8,8.6,16.2,8.6
			c8.5,0,14.8-2.7,19.2-8.3c3.6-4.7,6.6-14.9,8.9-30.3c1.9-12.4,4.8-25.5,8.6-39c5.2-18.3,11-31.7,17.2-39.8c3.6-4.9,7.7-7.3,12-7.3
			c0.6,0,1.1,0.3,1.4,0.7c0.3,0.5,0.4,1,0.2,1.5c-3.8,9.3-5.7,19.3-5.7,29.8c0,12.6,2.8,21.6,8.2,26.5c2.7,2.6,6.2,3.8,10.7,3.8
			c6.8,0,13.9-2.3,21.2-6.8c4.5-2.8,8.7-6.2,12.5-10c0.5-0.5,1.2-0.6,1.9-0.4c0.6,0.3,1,0.9,1,1.6c-1,13.6-1.5,25.2-1.5,34.5
			c0,16.9,1.3,28.6,4,34.8c2.5,5.8,7.8,8.6,16.2,8.6c8.5,0,14.8-2.7,19.2-8.3c3.6-4.7,6.6-14.9,8.9-30.3c1.9-12.4,4.8-25.5,8.6-39
			c5.2-18.3,11-31.7,17.2-39.8c3.6-4.9,7.7-7.3,12-7.3c0.6,0,1.1,0.3,1.4,0.7c0.3,0.5,0.4,1,0.2,1.5c-3.8,9.3-5.7,19.3-5.7,29.8
			c0,12.6,2.8,21.6,8.2,26.5c2.7,2.6,6.2,3.8,10.7,3.8c6.8,0,13.9-2.3,21.2-6.8c3.3-2,6.4-4.4,9.4-7
			C771.2,298.4,771.6,298.2,772,298.2z M841.3,294.4c-6.3,0-11-3.2-13.8-9.6c-0.1-0.3-0.2-0.7-0.1-1c1.3-6.5,3.2-12.6,5.6-18.2
			c2.5-5.7,5.7-10.3,9.6-13.8c4-3.6,9-5.4,14.6-5.4c4,0,8.8,2.3,8.8,13.3c0,8.2-2.4,16.1-7,23.4
			C854.3,290.6,848.3,294.4,841.3,294.4z M830.7,283.9c2.3,4.8,5.8,7.1,10.6,7.1c5.9,0,10.8-3.2,15-9.8c4.3-6.7,6.5-14,6.5-21.6
			c0-10-4.2-10-5.5-10c-4.9,0-9,1.5-12.4,4.6c-3.5,3.2-6.5,7.4-8.8,12.7C833.7,272.1,831.9,277.8,830.7,283.9z"/>
	</g>
	<g>
		<g>
			<path class="st1" d="M373.4,448.3h-4.3V444l0.1-34.6v-4.3h4.3l13.2-0.1c9.4,0,17.6,10.6,17.5,21.6c0,11-8,21.7-17.5,21.6H373.4z
				 M377.7,439.7h9c5.1,0,8.9-4.8,8.9-13c0-8.1-3.7-12.9-8.9-13h-9V439.7z"/>
			<path class="st1" d="M463.8,405h4.3v8.7h-4.3h-19.1v8.7h12.8h4.3v8.7h-4.3h-12.8v8.7h19.1h4.3v8.7h-4.3h-23.4H436V444v-13v-8.7
				v-13V405h4.3H463.8z"/>
			<path class="st1" d="M499.9,409.4V405h8.7v4.3v30.3h15h4.3v8.7h-4.3h-19.3h-4.3V444V409.4z"/>
			<path class="st1" d="M559.8,409.4V405h8.7v4.3V444v4.3h-8.7V444V409.4z"/>
			<path class="st1" d="M599.5,411l-2.4-6h9.4l1.1,2.7l10.3,24.9l10.2-24.9l1.1-2.7h9.4l-2.4,6l-14.2,34.6l-1.1,2.7h-5.8l-1.1-2.7
				L599.5,411z"/>
			<path class="st1" d="M695.9,405h4.3v8.7h-4.3h-19.1v8.7h12.8h4.3v8.7h-4.3h-12.8v8.7h19.1h4.3v8.7h-4.3h-23.4h-4.3V444v-13v-8.7
				v-13V405h4.3H695.9z"/>
			<path class="st1" d="M755,429.5c2.1,2.1,4.7,5.5,8.7,12.5l3.7,6.5h-9.9l-1.3-2.2c-3.7-6.5-4.5-6.1-12.9-15.4l-2.5,0v13v4.3H732
				V444l0-12.9c0,0,0,0,0,0v-8.7c0,0,0,0,0,0l0-13v-4.3h4.3l14.5-0.1c9.5,0,14.3,7,14.3,13.1C765.2,422.9,760.3,427.3,755,429.5z
				 M740.7,422.3l8-0.1h0.1c4.3,0,7.7-2.1,7.7-4.1v-0.1c0.1-3.4-0.6-4.3-5.6-4.4h-10.2V422.3z"/>
			<path class="st1" d="M816.4,428.2V444v4.3h-8.7V444v-15.8l-12.9-16.1l-5.7-7h11.1l1.3,1.6l10.5,13l10.2-13l1.3-1.6h11l-5.5,7
				L816.4,428.2z"/>
		</g>
	</g>
</g>
</svg>
